<svg xmlns="http://www.w3.org/2000/svg" width="117" height="117" viewBox="0 0 117 117">
  <g id="criamos_impacto" transform="translate(-1311.5 -4052)">
    <circle id="Elipse_12" data-name="Elipse 12" cx="58.5" cy="58.5" r="58.5" transform="translate(1311.5 4052)" fill="#11ffbd"/>
    <g id="target" transform="translate(1329.63 4082)">
      <g id="Grupo_178" data-name="Grupo 178" transform="translate(12.87)">
        <g id="Grupo_177" data-name="Grupo 177">
          <path id="Caminho_751" data-name="Caminho 751" d="M65.93,4.721H62.364V1.114a1.114,1.114,0,0,0-2.228,0v4.26l-4.658,4.67A25.477,25.477,0,0,0,20.332,46.917,25.89,25.89,0,0,0,22.689,49L16.553,55.14a1.114,1.114,0,1,0,1.576,1.576l6.4-6.4a25.519,25.519,0,0,0,27.7-.039l6.44,6.44A1.114,1.114,0,1,0,60.24,55.14l-6.18-6.18a25.92,25.92,0,0,0,2.3-2.043A25.5,25.5,0,0,0,61.3,17.839a1.114,1.114,0,0,0-2.007.969A23.031,23.031,0,0,1,61.6,28.9,23.249,23.249,0,1,1,53.9,11.623l-3.91,3.921a17.757,17.757,0,1,0,1.584,1.567l4.71-4.723,0,0,0,0,5.417-5.432H65.93a1.114,1.114,0,1,0,0-2.228ZM53.3,24.838a15.5,15.5,0,1,1-4.887-7.713l-4.6,4.612a9.041,9.041,0,1,0,1.59,1.561L50,18.692A15.479,15.479,0,0,1,53.3,24.838Zm-15.593,4.6a1.114,1.114,0,0,0,1.576,0l4.535-4.548a6.8,6.8,0,1,1-1.6-1.556l-4.518,4.53A1.114,1.114,0,0,0,37.71,29.438Z" transform="translate(-12.87)"/>
        </g>
      </g>
      <g id="Grupo_180" data-name="Grupo 180" transform="translate(57.027 13.775)">
        <g id="Grupo_179" data-name="Grupo 179">
          <circle id="Elipse_20" data-name="Elipse 20" cx="1.114" cy="1.114" r="1.114"/>
        </g>
      </g>
    </g>
  </g>
</svg>
