<svg xmlns="http://www.w3.org/2000/svg" width="117" height="117" viewBox="0 0 117 117">
  <g id="desafiamos_limite" transform="translate(-492 -4404)">
    <path id="Caminho_742" data-name="Caminho 742" d="M58.5,0A58.5,58.5,0,1,1,0,58.5,58.5,58.5,0,0,1,58.5,0Z" transform="translate(492 4404)" fill="#11ffbd"/>
    <g id="startup" transform="translate(524 4435.508)">
      <g id="Grupo_159" data-name="Grupo 159" transform="translate(0 50.756)">
        <g id="Grupo_158" data-name="Grupo 158" transform="translate(0)">
          <circle id="Elipse_15" data-name="Elipse 15" cx="1.014" cy="1.014" r="1.014"/>
        </g>
      </g>
      <g id="Grupo_161" data-name="Grupo 161" transform="translate(25.893 25.049)">
        <g id="Grupo_160" data-name="Grupo 160">
          <circle id="Elipse_16" data-name="Elipse 16" cx="1.012" cy="1.012" r="1.012"/>
        </g>
      </g>
      <g id="Grupo_163" data-name="Grupo 163" transform="translate(32.804 11.974)">
        <g id="Grupo_162" data-name="Grupo 162">
          <path id="Caminho_746" data-name="Caminho 746" d="M332.9,106.777a4.3,4.3,0,1,0,0,6.09A4.277,4.277,0,0,0,332.9,106.777Zm-1.431,4.659a2.283,2.283,0,1,1,0-3.228A2.285,2.285,0,0,1,331.469,111.436Z" transform="translate(-325.551 -105.516)"/>
        </g>
      </g>
      <g id="Grupo_165" data-name="Grupo 165" transform="translate(3.26 39.695)">
        <g id="Grupo_164" data-name="Grupo 164">
          <path id="Caminho_747" data-name="Caminho 747" d="M41.727,383.723a1.012,1.012,0,0,0-1.357.455l-1.2,2.42a3.339,3.339,0,0,1-2.751,1.836l-1.4.1a.6.6,0,0,1-.639-.639l.1-1.4a3.339,3.339,0,0,1,1.836-2.75l2.42-1.2a1.012,1.012,0,1,0-.9-1.811l-2.42,1.2a5.37,5.37,0,0,0-2.953,4.423l-.1,1.4a2.623,2.623,0,0,0,2.616,2.8c.06,0,.12,0,.179-.006l1.4-.1a5.369,5.369,0,0,0,4.423-2.953l1.2-2.42A1.012,1.012,0,0,0,41.727,383.723Z" transform="translate(-32.35 -380.616)"/>
        </g>
      </g>
      <g id="Grupo_167" data-name="Grupo 167" transform="translate(0.002 1.492)">
        <g id="Grupo_166" data-name="Grupo 166" transform="translate(0 0)">
          <path id="Caminho_748" data-name="Caminho 748" d="M50.91,2.166A2.342,2.342,0,0,0,49.117,1.5l-.942.06A30.524,30.524,0,0,0,26.489,12.743l-2.217,2.73-5.8-.17h-.03A17.116,17.116,0,0,0,6.257,20.348L.314,26.291a1.012,1.012,0,0,0,.663,1.726l12.58.646-.513.632a1.012,1.012,0,0,0-.1,1.121q.3.544.619,1.07l-2.983,3.542a1.012,1.012,0,0,0-.141,1.085,13.173,13.173,0,0,0,6.324,6.324,1.012,1.012,0,0,0,1.07-.129c.643-.521,1.384-1.14,2.1-1.738.511-.426,1.033-.862,1.522-1.264q.437.263.886.508a1.011,1.011,0,0,0,1.1-.089l.69-.535.649,12.633a1.011,1.011,0,0,0,1.726.663l5.943-5.943A17.115,17.115,0,0,0,37.5,34.36V28.819L39.841,27A30.4,30.4,0,0,0,51.581,4.442l.024-.492A2.344,2.344,0,0,0,50.91,2.166ZM3.354,26.112l4.334-4.334a15.106,15.106,0,0,1,10.737-4.453l4.241.125-7.528,9.268Zm15.281,12.9c-.528.441-1.07.892-1.572,1.306a11.114,11.114,0,0,1-4.507-4.5l2.184-2.593A23.454,23.454,0,0,0,16.9,35.737l0,0h0a23.455,23.455,0,0,0,2.785,2.394ZM35.473,34.36A15.105,15.105,0,0,1,31.02,45.112l-4.334,4.334-.6-11.769,9.392-7.288V34.36ZM49.56,4.343A28.381,28.381,0,0,1,38.6,25.4L22.734,37.713a21.422,21.422,0,0,1-3.665-2.705l5.349-5.349a1.012,1.012,0,1,0-1.431-1.431l-5.344,5.344a21.419,21.419,0,0,1-2.594-3.537L28.059,14.018A28.494,28.494,0,0,1,48.3,3.577l.942-.06a.319.319,0,0,1,.339.334Z" transform="translate(-0.018 -1.492)"/>
        </g>
      </g>
    </g>
  </g>
</svg>
