<svg xmlns="http://www.w3.org/2000/svg" width="117" height="117" viewBox="0 0 117 117">
  <g id="promovemos_diversidade" transform="translate(-491.5 -4052)">
    <circle id="Elipse_9" data-name="Elipse 9" cx="58.5" cy="58.5" r="58.5" transform="translate(491.5 4052)" fill="#11ffbd"/>
    <g id="panel" transform="translate(516.359 4083.107)">
      <g id="Grupo_169" data-name="Grupo 169" transform="translate(6.141 0)">
        <g id="Grupo_168" data-name="Grupo 168" transform="translate(0)">
          <path id="Caminho_749" data-name="Caminho 749" d="M59.385,8.535l-3.675-3.1a1.084,1.084,0,0,0-.7-.255H38.3V2.931A2.934,2.934,0,0,0,35.369,0H31.143a2.934,2.934,0,0,0-2.931,2.931V5.182H22.454a1.085,1.085,0,0,0-1.085,1.085V14.9a1.085,1.085,0,0,0,1.085,1.085h5.759v3.265H11.469a1.084,1.084,0,0,0-.7.255l-3.676,3.1a2.681,2.681,0,0,0,0,4.1l3.675,3.1a1.084,1.084,0,0,0,.7.255H28.212v23.3H23.786a1.085,1.085,0,0,0,0,2.169H42.725a1.085,1.085,0,1,0,0-2.169H38.3v-15.3a1.085,1.085,0,0,0-2.169,0v15.3H30.381V30.06H44.025a1.085,1.085,0,0,0,1.085-1.085V20.338a1.085,1.085,0,0,0-1.085-1.085H38.3V15.989H55.01a1.085,1.085,0,0,0,.7-.255l3.675-3.1a2.681,2.681,0,0,0,0-4.1Zm-29-5.6h0a.763.763,0,0,1,.762-.762h4.226a.763.763,0,0,1,.762.762V5.182H30.381Zm12.56,18.492v6.468H11.865L8.492,25.048a.512.512,0,0,1,0-.783l3.373-2.842H42.941Zm-12.56-2.169V15.989h5.749v3.265Zm27.605-8.276L54.614,13.82H29.406c-.036,0-.072-.006-.109-.006s-.073,0-.109.006H23.538V7.351H54.614l3.373,2.842a.512.512,0,0,1,0,.783Z" transform="translate(-6.141 0)"/>
        </g>
      </g>
      <g id="Grupo_171" data-name="Grupo 171" transform="translate(32.171 9.343)">
        <g id="Grupo_170" data-name="Grupo 170">
          <circle id="Elipse_17" data-name="Elipse 17" cx="1.085" cy="1.085" r="1.085"/>
        </g>
      </g>
      <g id="Grupo_173" data-name="Grupo 173" transform="translate(32.171 23.572)">
        <g id="Grupo_172" data-name="Grupo 172">
          <circle id="Elipse_18" data-name="Elipse 18" cx="1.085" cy="1.085" r="1.085"/>
        </g>
      </g>
      <g id="Grupo_175" data-name="Grupo 175" transform="translate(36.131 32.177)">
        <g id="Grupo_174" data-name="Grupo 174">
          <circle id="Elipse_19" data-name="Elipse 19" cx="1.085" cy="1.085" r="1.085"/>
        </g>
      </g>
    </g>
  </g>
</svg>
