<svg xmlns="http://www.w3.org/2000/svg" width="117" height="117" viewBox="0 0 117 117">
  <g id="trabalhamos_equipa" transform="translate(-1311 -4404)">
    <path id="Caminho_1178" data-name="Caminho 1178" d="M58.5,0A58.5,58.5,0,1,1,0,58.5,58.5,58.5,0,0,1,58.5,0Z" transform="translate(1311 4404)" fill="#11ffbd"/>
    <g id="group" transform="translate(1345 4434.361)">
      <g id="Grupo_149" data-name="Grupo 149" transform="translate(11.891 3.638)">
        <g id="Grupo_148" data-name="Grupo 148">
          <path id="Caminho_743" data-name="Caminho 743" d="M126.634,3.638a4.172,4.172,0,1,0,4.172,4.172A4.177,4.177,0,0,0,126.634,3.638Zm0,6.4a2.23,2.23,0,1,1,2.23-2.23A2.232,2.232,0,0,1,126.634,10.039Z" transform="translate(-122.462 -3.638)"/>
        </g>
      </g>
      <g id="Grupo_151" data-name="Grupo 151" transform="translate(30.809 3.638)">
        <g id="Grupo_150" data-name="Grupo 150">
          <path id="Caminho_744" data-name="Caminho 744" d="M321.45,3.638a4.172,4.172,0,1,0,4.172,4.172A4.176,4.176,0,0,0,321.45,3.638Zm0,6.4a2.23,2.23,0,1,1,2.23-2.23A2.232,2.232,0,0,1,321.45,10.039Z" transform="translate(-317.278 -3.638)"/>
        </g>
      </g>
      <g id="Grupo_153" data-name="Grupo 153" transform="translate(0 8.827)">
        <g id="Grupo_152" data-name="Grupo 152">
          <path id="Caminho_745" data-name="Caminho 745" d="M48.746,98.959H43.769l-.044-20.8a.971.971,0,0,0-.971-.969h0a.971.971,0,0,0-.969.973l.044,20.8H35.8l-.044-22.726a.968.968,0,0,0-.016-.171v-1.1a9.324,9.324,0,0,0-.432-2.814,7.006,7.006,0,0,1,3.385-.87h.016a6.951,6.951,0,0,1,4.859,1.944A6.481,6.481,0,0,1,45.578,77.9l.016,4.337a.971.971,0,0,0,.971.968h0a.971.971,0,0,0,.968-.975L47.52,77.9a8.406,8.406,0,0,0-2.605-6.07,8.819,8.819,0,0,0-3.147-1.957,4.623,4.623,0,0,0-3.324-7.837h-.01a4.624,4.624,0,0,0-3.253,7.9c.029.029.059.056.088.083q-.375.155-.736.345A9.743,9.743,0,0,0,29.124,65.9a5.114,5.114,0,1,0-6.891.14,9.739,9.739,0,0,0-5.009,4.3,8.867,8.867,0,0,0-1.049-.46,4.624,4.624,0,1,0-6.493.132,8.592,8.592,0,0,0-5.4,7.907v4.337a.971.971,0,1,0,1.942,0V77.916A6.765,6.765,0,0,1,13.1,71.28a7.01,7.01,0,0,1,3.346.841A9.322,9.322,0,0,0,16,74.964V98.959H10.149V78.169a.971.971,0,0,0-1.942,0v20.79H.971a.971.971,0,0,0,0,1.942H48.746a.971.971,0,1,0,0-1.942ZM38.438,63.974h.006a2.682,2.682,0,0,1,.006,5.364h-.006a2.682,2.682,0,0,1-.006-5.364ZM12.862,69.338a2.682,2.682,0,1,1,2.682-2.682A2.685,2.685,0,0,1,12.862,69.338ZM25.6,59.022a3.172,3.172,0,1,1-3.172,3.172A3.176,3.176,0,0,1,25.6,59.022Zm-5.15,39.936H17.946V87a4.9,4.9,0,0,0,2.506.932ZM30.463,74.28a.971.971,0,0,0-.971.971V98.959H26.7V87.234a.971.971,0,0,0-1.942,0V98.959H22.395V75.251a.971.971,0,1,0-1.942,0V85.982a2.84,2.84,0,0,1-2.506-2.767v-8.25a7.39,7.39,0,0,1,.579-2.876l0-.006a8.035,8.035,0,0,1,14.7.032,7.389,7.389,0,0,1,.567,2.849v8.25a2.833,2.833,0,0,1-2.362,2.745V75.251A.971.971,0,0,0,30.463,74.28Zm.971,24.679V87.92a4.895,4.895,0,0,0,2.4-.947l.024,11.986Z" transform="translate(0 -57.08)"/>
        </g>
      </g>
      <g id="Grupo_155" data-name="Grupo 155" transform="translate(45.594 36.831)">
        <g id="Grupo_154" data-name="Grupo 154">
          <circle id="Elipse_13" data-name="Elipse 13" cx="0.971" cy="0.971" r="0.971"/>
        </g>
      </g>
      <g id="Grupo_157" data-name="Grupo 157" transform="translate(4.284 36.831)">
        <g id="Grupo_156" data-name="Grupo 156">
          <circle id="Elipse_14" data-name="Elipse 14" cx="0.971" cy="0.971" r="0.971"/>
        </g>
      </g>
    </g>
  </g>
</svg>
