<svg xmlns="http://www.w3.org/2000/svg" xmlns:xlink="http://www.w3.org/1999/xlink" width="430.93" height="284.25" viewBox="0 0 430.93 284.25">
  <defs>
    <linearGradient id="linear-gradient" x1="214" y1="344" x2="214" y2="161.83" gradientTransform="matrix(1, 0, 0, -1, 0, 344)" gradientUnits="userSpaceOnUse">
      <stop offset="0" stop-color="#fff"/>
      <stop offset="1" stop-color="#d3d4d6"/>
    </linearGradient>
  </defs>
  <title>Asset 1</title>
  <g id="Layer_2" data-name="Layer 2">
    <g id="Layer_1-2" data-name="Layer 1">
      <g id="Layer_2-2" data-name="Layer 2">
        <g id="Layer_1-2-2" data-name="Layer 1-2">
          <g>
            <path d="M43.93,234.53c.26.58,0,1-.64,1H39.55c-.64,0-.9-.26-1.29-1l-5-10.94H10.74l-5,10.94c-.39.77-.64,1-1.35,1H.68c-.58,0-.84-.45-.58-1l21-44.22c.32-.51.45-.9.84-.9h.19c.32,0,.51.39.78.9ZM22,198.22l-9.46,21h19l-9.46-21Z" fill="#d2d4d6"/>
            <path d="M55.84,234.53c0,.77-.26,1-1,1H51.75c-.77,0-1-.26-1-1V190.21c0-.45.13-.51.58-.51h.32a.94.94,0,0,1,.84.45l30,35.79V191.53c0-.84.26-1,1-1h3.07c.78,0,1,.19,1,1v44.35c0,.45-.13.51-.51.51h-.32a1.31,1.31,0,0,1-1-.51l-29.88-36Z" fill="#d2d4d6"/>
            <path d="M116.66,190.5a22.53,22.53,0,1,1,0,45.06H100.89c-.71,0-1-.26-1-1v-43c0-.78.26-1,1-1Zm-11.72,4.38v36.3h11.67c10.49,0,17.31-8.5,17.31-18.15s-6.82-18.15-17.31-18.15Z" fill="#d2d4d6"/>
            <path d="M169.51,217.35l12.1,17c.51.84,0,1.23-.77,1.23h-3.07a2,2,0,0,1-1.74-1l-11.84-16.61H152.71v16.61c0,.84-.26,1-1,1h-3.07c-.77,0-1-.13-1-1v-43c0-.78.26-1,1-1H164c7.34,0,15.64,3.07,15.64,13.52C179.62,211.69,175.49,215.78,169.51,217.35Zm-5.86-3.8c7.66,0,11-3.67,11-9.53,0-6.43-4.38-9.14-11-9.14H152.71v18.66Z" fill="#d2d4d6"/>
            <path d="M209.67,189.66a23.37,23.37,0,1,1-23,23.69q0-.16,0-.32A23.3,23.3,0,0,1,209.67,189.66Zm0,42.23c10.17,0,17.9-9.2,17.9-18.86s-7.72-18.86-17.9-18.86-17.9,9.14-17.9,18.86S199.63,231.89,209.67,231.89Z" fill="#d2d4d6"/>
            <path d="M268.76,235.36c-.33.64-.64,1-1.16,1h-.51c-.51,0-.78-.39-1.23-1l-17.33-34.31-3.79,33.47c-.13.77-.26,1-1,1h-3.15c-.71,0-1-.32-.9-1l5.41-44.28c.06-.45.13-.58.58-.58H246c.26,0,.45.06.78.58l20.6,38.94,20.52-39c.32-.51.51-.58.77-.58h.39c.45,0,.51.13.58.58l5.41,44.28c.06.71-.19,1-1,1H291c-.71,0-.9-.26-1-1L286.29,201Z" fill="#d2d4d6"/>
            <path d="M306,235.56c-.78,0-1-.26-1-1v-43c0-.78.26-1,1-1H334.6c.71,0,1,.26,1,1V194c0,.77-.26,1-1,1H310.06v15.64h23.36c.78,0,1,.26,1,1V214c0,.78-.26,1-1,1H310v16.07h24.54c.78,0,1,.26,1,1v2.38c0,.77-.19,1-1,1Z" fill="#d2d4d6"/>
            <path d="M362,190.5a22.53,22.53,0,0,1,0,45.06H346.32c-.71,0-1-.26-1-1v-43c0-.78.26-1,1-1Zm-11.72,4.38v36.3H362c10.49,0,17.31-8.5,17.31-18.15s-6.82-18.15-17.31-18.15Z" fill="#d2d4d6"/>
            <path d="M430.83,234.53c.26.58,0,1-.64,1h-3.71c-.64,0-.9-.26-1.29-1l-5-10.94h-22.5l-5,10.94c-.39.77-.64,1-1.35,1h-3.68c-.58,0-.84-.45-.58-1l21-44.22c.33-.51.45-.9.84-.9H409c.32,0,.51.39.77.9Zm-21.95-36.3-9.46,21h19l-9.46-21Z" fill="#d2d4d6"/>
          </g>
          <polygon points="207.89 13.09 129.05 182.17 141.28 182.17 214.01 26.19 286.74 182.17 298.96 182.17 220.11 13.09 220.12 13.07 220.1 13.07 214.02 0 207.88 13.06 207.89 13.09 207.89 13.09" fill="url(#linear-gradient)"/>
          <path d="M102.19,94.45c0-.67.38-1,1.12-1.28,3.07-.83,6.53-3.75,6.53-7.28V80c0-16.82,12.27-18.85,18.55-18.85.9,0,1.12.3,1.12,1.2v2.94c0,.9-.22,1.12-1.12,1.12-4.36,0-12.76,2-12.76,13.59V85.9a10.06,10.06,0,0,1-6.76,9.91v.32a10.06,10.06,0,0,1,6.76,9.91V112c0,11.64,8.41,13.59,12.76,13.59.9,0,1.12.22,1.12,1.12v2.92c0,1-.3,1.2-1.12,1.2-6.23,0-18.55-2-18.55-18.85V106c0-3.6-3.46-6.45-6.53-7.28-.75-.22-1.12-.6-1.12-1.28Z" fill="#79589a"/>
          <path d="M326.66,97.46c0,.67-.3,1-1.12,1.28-3.07.83-6.53,3.68-6.53,7.28V112c0,16.82-12.27,18.85-18.47,18.85-.9,0-1.2-.22-1.2-1.2v-2.92c0-.9.22-1.12,1.2-1.12,4.36,0,12.69-2,12.69-13.59V106a10.11,10.11,0,0,1,6.83-9.9v-.3a10.11,10.11,0,0,1-6.84-9.93V80c0-11.64-8.33-13.59-12.69-13.59-.9,0-1.2-.22-1.2-1.12V62.32c0-.9.3-1.2,1.2-1.2,6.23,0,18.47,2,18.47,18.85V85.9c0,3.53,3.46,6.45,6.53,7.28.83.3,1.12.6,1.12,1.28Z" fill="#79589a"/>
          <g>
            <path d="M177.29,276.52a.65.65,0,0,1,.92-.1l.1.1,1.45,1.54c.39.48.39.73,0,1.16a18.41,18.41,0,0,1-12.65,5,17.53,17.53,0,0,1,0-35,18.41,18.41,0,0,1,12.65,5c.39.39.34.62,0,1l-1.4,1.54a.65.65,0,0,1-1.11,0,13.74,13.74,0,0,0-10.09-4.24c-7.53,0-13.42,6.85-13.42,14.14s5.89,14.14,13.42,14.14A13.92,13.92,0,0,0,177.29,276.52Z" fill="#79589a"/>
            <path d="M201.28,249.19A17.53,17.53,0,1,1,184,267q0-.12,0-.24A17.48,17.48,0,0,1,201.28,249.19Zm0,31.7c7.63,0,13.43-6.9,13.43-14.14s-5.8-14.15-13.43-14.15-13.42,6.85-13.42,14.14,5.89,14.12,13.42,14.12Z" fill="#79589a"/>
            <path d="M237.58,249.81a16.89,16.89,0,0,1,0,33.75H225.76c-.53,0-.78-.19-.78-.78V250.55c0-.58.19-.77.78-.77Zm-8.78,3.28v27.23h8.73c7.87,0,13-6.37,13-13.61s-5.11-13.61-13-13.61Z" fill="#79589a"/>
            <path d="M261.43,283.61c-.58,0-.78-.19-.78-.78V250.55c0-.58.19-.77.78-.77H282.9c.53,0,.73.19.73.77v1.79c0,.58-.19.77-.73.77H264.5v11.76h17.57c.58,0,.78.19.78.78v1.79c0,.58-.19.77-.78.77h-17.6v12.07h18.41c.58,0,.73.19.73.78v1.79c0,.58-.14.78-.73.78Z" fill="#79589a"/>
          </g>
        </g>
      </g>
    </g>
  </g>
</svg>
